<?xml version="1.0" standalone="no"?>
<!DOCTYPE svg PUBLIC "-//W3C//DTD SVG 20010904//EN"
 "http://www.w3.org/TR/2001/REC-SVG-20010904/DTD/svg10.dtd">
<svg version="1.0" xmlns="http://www.w3.org/2000/svg"
 width="256.000000pt" height="256.000000pt" viewBox="0 0 256.000000 256.000000"
 preserveAspectRatio="xMidYMid meet">

<g transform="translate(0.000000,256.000000) scale(0.100000,-0.100000)"
fill="#9a9b9c" stroke="none">
<path d="M417 2352 c-33 -38 -133 -202 -168 -277 -96 -204 -124 -331 -124
-560 0 -185 12 -264 66 -428 143 -437 480 -761 951 -914 l106 -35 123 42 c401
136 681 374 858 728 157 314 186 715 72 1028 -46 129 -146 313 -232 427 -3 4
-24 1 -48 -8 -144 -50 -473 -58 -661 -15 -117 27 -115 27 -225 1 -133 -32
-357 -39 -512 -16 -65 10 -134 24 -155 31 -32 11 -38 10 -51 -4z m148 -77
c152 -39 441 -39 585 0 30 8 61 15 68 15 10 0 12 -124 10 -602 l-3 -603 -489
0 -489 0 -18 64 c-25 88 -49 258 -49 344 1 171 49 374 127 536 60 123 161 273
181 267 9 -3 44 -12 77 -21z m775 -46 c0 -12 -37 -12 -44 0 -3 4 -3 11 0 14 8
7 44 -4 44 -14z m70 -19 c0 -5 -9 -10 -20 -10 -11 0 -20 5 -20 10 0 6 9 10 20
10 11 0 20 -4 20 -10z m78 -28 c3 -9 -2 -13 -14 -10 -9 1 -19 9 -22 16 -3 9 2
13 14 10 9 -1 19 -9 22 -16z m67 -23 c10 -15 -1 -23 -20 -15 -9 3 -13 10 -10
16 8 13 22 13 30 -1z m80 -49 c-8 -13 -35 0 -35 16 0 12 4 12 20 4 11 -6 18
-15 15 -20z m-121 5 c28 -6 55 -30 56 -49 0 -5 -10 2 -23 16 -25 27 -101 37
-137 18 -52 -28 -50 -118 3 -150 20 -12 26 -20 15 -20 -25 0 -68 57 -68 91 0
51 25 84 75 100 20 7 25 6 79 -6z m345 -26 c46 -43 50 -109 11 -176 -18 -31
-18 -31 3 -50 12 -10 41 -32 64 -47 24 -16 53 -42 65 -58 13 -16 53 -61 91
-100 37 -39 67 -76 67 -81 0 -5 6 -4 14 2 10 9 16 8 25 -3 10 -11 9 -16 -4
-23 -13 -8 -14 -11 -3 -20 36 -28 47 -23 53 25 11 83 14 92 35 92 16 0 19 -5
16 -22 -3 -13 -12 -69 -21 -126 -15 -101 -15 -104 5 -129 32 -41 26 -86 -14
-120 -29 -24 -35 -36 -41 -86 -4 -31 -11 -60 -16 -62 -4 -3 -97 8 -205 25
-109 16 -201 30 -205 30 -4 0 -13 -16 -19 -35 l-12 -35 -138 0 -137 0 -6 30
-6 30 -101 0 -100 0 0 109 0 108 75 28 c60 21 76 32 81 51 4 13 20 34 36 46
35 24 84 122 94 185 6 37 3 45 -21 67 -33 31 -129 84 -207 116 -60 24 -79 47
-30 36 15 -3 72 -29 127 -56 56 -28 103 -50 106 -50 7 0 2 39 -13 98 -8 32
-15 42 -32 43 -20 0 -20 1 -1 8 30 12 42 -13 59 -119 8 -51 19 -97 24 -102 12
-12 -22 -129 -54 -184 -13 -22 -36 -46 -51 -53 -27 -12 -27 -13 -8 -27 15 -11
16 -14 3 -14 -8 0 -21 -6 -28 -14 -6 -8 -43 -27 -81 -41 l-69 -27 0 -99 0 -99
96 0 96 0 11 -30 11 -30 128 0 127 0 21 66 c11 37 23 85 26 108 4 23 10 46 15
51 4 6 12 39 18 74 13 82 49 191 65 197 7 3 38 -4 68 -16 31 -11 60 -19 66
-18 5 2 25 -16 44 -39 20 -23 43 -49 52 -58 22 -22 39 -55 32 -63 -3 -3 -6 0
-6 6 0 6 -25 40 -56 74 -49 55 -65 66 -123 85 -36 11 -69 19 -73 17 -4 -3 -20
-44 -35 -91 -25 -81 -26 -91 -15 -155 7 -38 12 -91 12 -118 0 -28 5 -50 10
-50 6 0 74 -10 151 -21 77 -12 142 -19 145 -17 2 3 9 29 14 59 9 47 8 60 -10
94 -11 22 -19 55 -19 75 2 33 2 33 6 5 5 -41 23 -85 35 -85 6 0 7 11 4 25 -4
14 -2 25 3 25 16 0 33 -39 26 -60 -8 -26 3 -25 32 2 31 29 29 66 -5 108 -16
19 -45 69 -65 110 -26 55 -63 104 -139 188 -57 62 -121 124 -143 139 -22 14
-50 35 -63 46 -22 20 -22 21 -4 41 26 29 46 98 37 127 -25 83 -120 90 -168 12
-19 -31 -24 -53 -25 -118 -1 -63 -4 -82 -18 -92 -10 -7 -21 -13 -25 -13 -17 0
-67 119 -72 175 -4 39 -3 54 3 45 5 -8 10 -35 10 -61 0 -33 8 -58 31 -93 27
-44 32 -47 45 -34 11 11 16 36 16 84 0 55 5 78 25 112 14 23 32 46 41 52 30
17 87 11 111 -11z m-164 0 c10 -15 -1 -23 -20 -15 -9 3 -13 10 -10 16 8 13 22
13 30 -1z m253 -188 c3 -8 -1 -12 -9 -9 -7 2 -15 10 -17 17 -3 8 1 12 9 9 7
-2 15 -10 17 -17z m50 -50 c3 -8 -1 -12 -9 -9 -7 2 -15 10 -17 17 -3 8 1 12 9
9 7 -2 15 -10 17 -17z m50 -49 c2 -7 -3 -12 -12 -12 -9 0 -16 7 -16 16 0 17
22 14 28 -4z m50 -59 c6 -19 -25 -16 -32 3 -4 11 -1 14 11 12 9 -2 18 -9 21
-15z m35 -48 c8 -19 -13 -31 -23 -14 -9 14 -4 29 10 29 4 0 10 -7 13 -15z m37
-71 c0 -16 -16 -19 -25 -4 -8 13 4 32 16 25 5 -4 9 -13 9 -21z m-753 -581 c-9
-8 -48 8 -42 18 4 5 14 5 26 -2 12 -6 18 -13 16 -16z m-823 -29 c32 -32 8 -48
-26 -18 -14 14 -20 14 -33 4 -20 -16 -19 -59 1 -67 8 -3 26 0 40 7 13 8 27 10
31 6 10 -10 -34 -46 -57 -46 -28 0 -70 39 -70 66 0 52 77 85 114 48z m134 -13
c5 -30 46 -25 50 7 2 12 10 22 18 22 20 0 20 -116 0 -123 -10 -4 -16 2 -18 21
-2 19 -10 28 -25 30 -19 3 -23 -1 -23 -21 0 -24 -21 -42 -34 -30 -8 9 -8 108
1 117 12 12 28 0 31 -23z m325 -29 c21 -57 17 -73 -13 -54 -27 16 -55 15 -70
-3 -21 -26 -29 -6 -13 33 8 20 19 47 24 60 16 41 49 25 72 -36z m77 8 c0 -49
1 -50 30 -50 17 0 30 -4 30 -9 0 -9 -70 -21 -82 -14 -5 2 -8 31 -8 64 0 46 3
59 15 59 11 0 15 -12 15 -50z m181 40 c22 -12 26 -40 4 -40 -7 0 -18 8 -24 18
-14 24 -45 4 -49 -32 -4 -32 20 -44 54 -26 33 18 44 3 15 -21 -32 -26 -57 -24
-87 7 -57 56 14 133 87 94z m138 -41 c30 -74 25 -102 -13 -64 -19 19 -43 19
-63 0 -24 -25 -33 -7 -16 33 8 20 19 47 24 60 15 39 44 27 68 -29z m125 45
c31 -12 16 -25 -20 -18 -29 5 -36 4 -32 -7 3 -8 17 -16 33 -19 54 -10 60 -63
9 -76 -31 -8 -75 5 -82 24 -3 9 6 11 37 6 47 -7 58 10 14 21 -16 4 -34 11 -40
17 -38 31 27 73 81 52z m147 -11 c13 -15 11 -16 -23 -9 -43 8 -62 -10 -21 -20
55 -13 72 -53 32 -75 -27 -14 -89 -3 -89 17 0 11 9 13 40 8 22 -4 40 -4 40 0
0 3 -18 13 -40 22 -41 17 -51 39 -28 62 18 18 73 15 89 -5z m144 2 c0 -5 -17
-11 -37 -13 -45 -4 -51 -22 -8 -22 20 0 30 -5 30 -15 0 -10 -10 -15 -30 -15
-16 0 -30 -4 -30 -10 0 -5 18 -10 40 -10 22 0 40 -4 40 -9 0 -9 -98 -20 -106
-12 -2 2 -4 31 -4 63 l0 59 53 -3 c28 -2 52 -7 52 -13z m130 1 c17 -12 18 -17
6 -39 -10 -18 -10 -30 -2 -45 17 -32 -5 -37 -33 -8 -28 31 -46 33 -46 7 0 -10
-7 -21 -15 -25 -12 -4 -15 6 -15 59 l0 65 43 0 c24 0 52 -6 62 -14z m-1337
-97 c-2 -6 -8 -10 -13 -10 -5 0 -11 4 -13 10 -2 6 4 11 13 11 9 0 15 -5 13
-11z m210 0 c-2 -6 -8 -10 -13 -10 -5 0 -11 4 -13 10 -2 6 4 11 13 11 9 0 15
-5 13 -11z m515 -156 c26 -13 47 -27 47 -32 0 -5 2 -16 6 -24 9 -25 -74 -42
-136 -26 -58 15 -65 21 -74 65 -6 29 -4 33 21 42 36 12 76 5 136 -25z m-172
-20 c14 -38 6 -63 -35 -102 -41 -40 -121 -56 -132 -27 -10 26 3 59 38 100 28
32 60 48 111 55 4 1 12 -11 18 -26z m263 -59 c3 -8 2 -12 -4 -9 -6 3 -10 10
-10 16 0 14 7 11 14 -7z m-179 -16 l46 -12 -3 -60 -3 -60 -50 -13 c-69 -18
-67 -18 -99 33 l-29 45 39 40 c43 44 39 43 99 27z m181 -25 c25 -32 29 -45 26
-88 -4 -55 -14 -71 -52 -80 -19 -4 -34 2 -63 26 -37 31 -38 32 -35 92 l3 60
40 13 c22 6 43 12 46 13 4 1 20 -16 35 -36z m-444 -84 l-10 -34 -1 45 c-1 31
2 41 10 33 7 -7 7 -21 1 -44z m143 -10 c22 -35 26 -48 21 -83 -9 -56 -17 -66
-58 -72 -34 -6 -37 -3 -69 42 -19 27 -33 54 -32 59 13 89 15 91 79 94 26 1 36
-6 59 -40z m203 -60 c29 -26 33 -35 28 -63 -10 -50 -26 -65 -90 -81 l-60 -16
-33 33 c-32 32 -32 34 -20 75 15 52 19 55 70 70 62 16 69 15 105 -18z m111
-46 c-12 -34 -58 -83 -76 -83 -16 0 -16 -3 3 53 11 32 22 47 37 50 46 9 47 9
36 -20z m-408 -50 c13 -16 12 -17 -3 -4 -10 7 -18 15 -18 17 0 8 8 3 21 -13z
m134 -43 c55 -58 -7 -63 -87 -8 -39 27 -35 38 15 38 35 0 49 -6 72 -30z m185
-5 c0 -11 -85 -45 -112 -45 -46 0 -32 15 30 32 65 18 82 20 82 13z"/>
<path d="M580 1996 c0 -163 1 -175 19 -181 11 -3 31 -3 46 1 26 6 26 7 19 70
l-6 64 62 0 62 0 -6 -64 c-7 -60 -6 -64 16 -69 12 -4 33 -4 45 -1 23 6 23 7
23 180 l0 174 -40 0 -39 0 -3 -62 -3 -63 -58 -3 -59 -3 4 63 3 63 -42 3 -43 3
0 -175z"/>
<path d="M981 1908 c-7 -24 -33 -106 -57 -182 -48 -151 -48 -159 11 -154 21 2
34 11 43 31 12 24 19 27 62 27 42 0 50 -3 56 -22 8 -28 22 -38 54 -38 52 0 52
8 4 156 -78 239 -70 224 -119 224 -41 0 -42 -1 -54 -42z m76 -151 c5 -35 4
-37 -21 -37 -21 0 -26 4 -22 18 3 9 8 30 12 45 8 35 23 23 31 -26z"/>
<path d="M365 1933 c-40 -11 -68 -39 -91 -88 -32 -67 -31 -134 1 -203 20 -43
32 -56 67 -72 54 -24 72 -24 125 -1 58 27 63 52 24 110 -7 12 -14 10 -36 -8
-37 -28 -61 -27 -90 5 -18 20 -25 38 -25 69 0 82 64 121 123 75 l25 -20 17 36
c19 41 16 57 -17 78 -26 17 -93 27 -123 19z"/>
<path d="M695 1760 c-4 -13 -15 -20 -31 -20 -28 0 -31 -12 -8 -31 9 -7 14 -22
11 -36 -4 -20 -1 -23 17 -17 26 9 36 8 59 -1 15 -6 17 -4 12 17 -4 16 -1 29 9
37 22 18 20 31 -4 31 -11 0 -25 9 -32 20 -7 11 -16 20 -20 20 -4 0 -10 -9 -13
-20z"/>
<path d="M675 1612 c-16 -10 -77 -43 -135 -74 -235 -124 -301 -160 -298 -163
18 -14 463 -248 473 -248 5 0 69 32 140 71 72 38 173 93 225 120 84 45 119 72
93 72 -5 0 -110 54 -233 120 -123 66 -226 120 -229 120 -3 0 -19 -8 -36 -18z
m224 -134 c94 -51 172 -97 173 -103 1 -9 -47 -37 -268 -154 l-92 -48 -180 96
c-100 53 -181 100 -182 105 -2 10 338 195 361 195 8 1 93 -41 188 -91z"/>
<path d="M508 1429 c-19 -11 -25 -39 -8 -39 6 0 10 -20 10 -45 0 -38 3 -45 20
-45 18 0 20 7 20 70 0 73 -6 81 -42 59z"/>
<path d="M586 1424 c-30 -30 -13 -73 29 -75 19 0 19 -1 -2 -11 -28 -14 -30
-38 -4 -38 34 0 74 43 74 80 0 53 -61 81 -97 44z m54 -29 c0 -8 -7 -15 -15
-15 -8 0 -15 7 -15 15 0 8 7 15 15 15 8 0 15 -7 15 -15z"/>
<path d="M700 1420 c0 -13 7 -20 20 -20 24 0 24 0 3 -45 -12 -26 -14 -38 -6
-46 17 -17 43 -3 43 21 0 11 9 38 20 59 10 21 16 41 13 45 -4 3 -26 6 -50 6
-36 0 -43 -3 -43 -20z"/>
<path d="M823 1433 c-7 -2 -13 -13 -13 -24 0 -16 3 -18 19 -10 38 21 42 -16 6
-50 -37 -35 -31 -44 28 -43 40 0 53 4 55 17 2 12 -3 17 -18 17 -12 0 -20 3
-18 8 2 4 10 20 18 36 13 26 12 29 -5 42 -19 14 -49 17 -72 7z"/>
<path d="M2216 1475 c4 -8 8 -15 10 -15 2 0 4 7 4 15 0 8 -4 15 -10 15 -5 0
-7 -7 -4 -15z"/>
<path d="M1817 1273 c-4 -21 -10 -51 -13 -66 -6 -25 -4 -28 12 -25 15 2 20 14
22 57 4 64 -12 90 -21 34z"/>
<path d="M996 975 c-9 -23 -8 -25 9 -25 17 0 19 9 6 28 -7 11 -10 10 -15 -3z"/>
<path d="M1396 975 c-9 -23 -8 -25 9 -25 17 0 19 9 6 28 -7 11 -10 10 -15 -3z"/>
<path d="M1927 1004 c-14 -14 -6 -24 19 -24 16 0 24 5 22 13 -5 14 -31 21 -41
11z"/>
</g>
</svg>
